<svg xmlns="http://www.w3.org/2000/svg" width="1000" height="387.1" viewBox="0 0 1000 387.1">
  <path fill="#0078f0" d="M484.4 236.6c-25.8-5.3-43.2-11-43.2-23.3 0-13.2 19.8-20.7 45.3-20.7 23.6 0 43.2 6.5 54.3 12.3l10.2-38.2c-13-6.2-39.4-13.5-64.5-13.5-50.5 0-84.2 26.7-84.2 64.5 0 48 41.6 63.6 74.7 70.8 29.9 6.5 45.3 11.2 45.3 24.2 0 15.5-21.2 22.4-48.8 22.4-29.9 0-52.1-8-65.4-15.2l-11.6 38.5c15.5 7.7 45.3 16.4 77 16.4 54.3 0 88-26.4 88-66.3 0-52.1-43.2-64.5-77-72.4zM663.3 153.4c-54.3 0-96.2 41.9-96.2 95.9s41.9 95.9 96.2 95.9 96.2-41.9 96.2-95.9-41.9-95.9-96.2-95.9zm0 153.4c-32.2 0-54.3-24.2-54.3-57.5s22.1-57.5 54.3-57.5 54.3 24.2 54.3 57.5-22.1 57.5-54.3 57.5zM843.8 153.4c-54.3 0-96.2 41.9-96.2 95.9s41.9 95.9 96.2 95.9 96.2-41.9 96.2-95.9-41.9-95.9-96.2-95.9zm0 153.4c-32.2 0-54.3-24.2-54.3-57.5s22.1-57.5 54.3-57.5 54.3 24.2 54.3 57.5-22.1 57.5-54.3 57.5zM386.6 249.3c0 57.5-40.1 95.9-95.9 95.9s-95.9-38.5-95.9-95.9S235.1 153.4 290.7 153.4s95.9 38.5 95.9 95.9zm-153.4 0c0 33.1 22.1 57.5 57.5 57.5s57.5-24.5 57.5-57.5-22.1-57.5-57.5-57.5-57.5 24.5-57.5 57.5zM1000 249.3c0 57.5-40.1 95.9-95.9 95.9s-95.9-38.5-95.9-95.9S848.4 153.4 904.1 153.4s95.9 38.5 95.9 95.9zm-153.4 0c0 33.1 22.1 57.5 57.5 57.5s57.5-24.5 57.5-57.5-22.1-57.5-57.5-57.5-57.5 24.5-57.5 57.5zM123.3 139.9l-4.1 29.3c-5.9-1.2-12.1-1.8-18.5-1.8-13.5 0-22.7 5.6-22.7 16.4v101.8h-45V154.3c0-25.1 19.4-40.1 48.5-40.1 14.4 0 27.9 4.1 38.2 10.5l4.1-24.8h40zM40.1 0L0 114.1h48.2L63.3 0h40.1L55.2 114.1h48.2L88.3 0h39.8l-48.2 114.1c-10.2 29.3-26.1 35.8-43.5 35.8-7.1 0-12.7-.9-17.3-2.5L53.1 114c-4.7 1.2-9.9 1.8-15.2 1.8-29.3 0-48.2-16.1-48.2-44.1V0h40.1z"/>
</svg>